<mxfile host="app.diagrams.net" modified="2021-11-28T23:15:13.115Z" agent="5.0 (Windows NT 10.0; Win64; x64) AppleWebKit/537.36 (KHTML, like Gecko) Chrome/96.0.4664.45 Safari/537.36" etag="4OBZAjCNzcUR12lkcWHT" version="15.8.6" type="github">
  <diagram id="siDG4shrSe6X6VfH5Ed4" name="Page-1">
    <mxGraphModel dx="1038" dy="1716" grid="1" gridSize="10" guides="1" tooltips="1" connect="1" arrows="1" fold="1" page="1" pageScale="1" pageWidth="827" pageHeight="1169" math="0" shadow="0">
      <root>
        <mxCell id="0" />
        <mxCell id="1" parent="0" />
        <mxCell id="oc-SN3SERbFoDHRb8Ioh-1" value="Comp" style="swimlane;fontStyle=1;align=center;verticalAlign=top;childLayout=stackLayout;horizontal=1;startSize=26;horizontalStack=0;resizeParent=1;resizeParentMax=0;resizeLast=0;collapsible=1;marginBottom=0;" vertex="1" parent="1">
          <mxGeometry x="30" y="-390" width="160" height="130" as="geometry" />
        </mxCell>
        <mxCell id="oc-SN3SERbFoDHRb8Ioh-2" value="- working: boolean" style="text;strokeColor=none;fillColor=none;align=left;verticalAlign=top;spacingLeft=4;spacingRight=4;overflow=hidden;rotatable=0;points=[[0,0.5],[1,0.5]];portConstraint=eastwest;" vertex="1" parent="oc-SN3SERbFoDHRb8Ioh-1">
          <mxGeometry y="26" width="160" height="26" as="geometry" />
        </mxCell>
        <mxCell id="oc-SN3SERbFoDHRb8Ioh-3" value="" style="line;strokeWidth=1;fillColor=none;align=left;verticalAlign=middle;spacingTop=-1;spacingLeft=3;spacingRight=3;rotatable=0;labelPosition=right;points=[];portConstraint=eastwest;" vertex="1" parent="oc-SN3SERbFoDHRb8Ioh-1">
          <mxGeometry y="52" width="160" height="8" as="geometry" />
        </mxCell>
        <mxCell id="oc-SN3SERbFoDHRb8Ioh-4" value="+ showInfo(): void&#xa;+ isOn(): void&#xa;+ isOff(): void" style="text;strokeColor=none;fillColor=none;align=left;verticalAlign=top;spacingLeft=4;spacingRight=4;overflow=hidden;rotatable=0;points=[[0,0.5],[1,0.5]];portConstraint=eastwest;" vertex="1" parent="oc-SN3SERbFoDHRb8Ioh-1">
          <mxGeometry y="60" width="160" height="70" as="geometry" />
        </mxCell>
        <mxCell id="oc-SN3SERbFoDHRb8Ioh-5" value="Keyboard" style="swimlane;fontStyle=1;align=center;verticalAlign=top;childLayout=stackLayout;horizontal=1;startSize=26;horizontalStack=0;resizeParent=1;resizeParentMax=0;resizeLast=0;collapsible=1;marginBottom=0;" vertex="1" parent="1">
          <mxGeometry x="320" y="-584" width="160" height="150" as="geometry" />
        </mxCell>
        <mxCell id="oc-SN3SERbFoDHRb8Ioh-6" value="- model: string&#xa;- lightning: boolean" style="text;strokeColor=none;fillColor=none;align=left;verticalAlign=top;spacingLeft=4;spacingRight=4;overflow=hidden;rotatable=0;points=[[0,0.5],[1,0.5]];portConstraint=eastwest;" vertex="1" parent="oc-SN3SERbFoDHRb8Ioh-5">
          <mxGeometry y="26" width="160" height="54" as="geometry" />
        </mxCell>
        <mxCell id="oc-SN3SERbFoDHRb8Ioh-7" value="" style="line;strokeWidth=1;fillColor=none;align=left;verticalAlign=middle;spacingTop=-1;spacingLeft=3;spacingRight=3;rotatable=0;labelPosition=right;points=[];portConstraint=eastwest;" vertex="1" parent="oc-SN3SERbFoDHRb8Ioh-5">
          <mxGeometry y="80" width="160" height="8" as="geometry" />
        </mxCell>
        <mxCell id="oc-SN3SERbFoDHRb8Ioh-8" value="+ showInfo(): string&#xa;+ isOn(): void&#xa;+ isOff(): void" style="text;strokeColor=none;fillColor=none;align=left;verticalAlign=top;spacingLeft=4;spacingRight=4;overflow=hidden;rotatable=0;points=[[0,0.5],[1,0.5]];portConstraint=eastwest;" vertex="1" parent="oc-SN3SERbFoDHRb8Ioh-5">
          <mxGeometry y="88" width="160" height="62" as="geometry" />
        </mxCell>
        <mxCell id="oc-SN3SERbFoDHRb8Ioh-9" value="Graphics" style="swimlane;fontStyle=1;align=center;verticalAlign=top;childLayout=stackLayout;horizontal=1;startSize=26;horizontalStack=0;resizeParent=1;resizeParentMax=0;resizeLast=0;collapsible=1;marginBottom=0;" vertex="1" parent="1">
          <mxGeometry x="310" y="-350" width="160" height="120" as="geometry" />
        </mxCell>
        <mxCell id="oc-SN3SERbFoDHRb8Ioh-10" value="+ model: string&#xa;+ frequency: float" style="text;strokeColor=none;fillColor=none;align=left;verticalAlign=top;spacingLeft=4;spacingRight=4;overflow=hidden;rotatable=0;points=[[0,0.5],[1,0.5]];portConstraint=eastwest;" vertex="1" parent="oc-SN3SERbFoDHRb8Ioh-9">
          <mxGeometry y="26" width="160" height="34" as="geometry" />
        </mxCell>
        <mxCell id="oc-SN3SERbFoDHRb8Ioh-11" value="" style="line;strokeWidth=1;fillColor=none;align=left;verticalAlign=middle;spacingTop=-1;spacingLeft=3;spacingRight=3;rotatable=0;labelPosition=right;points=[];portConstraint=eastwest;" vertex="1" parent="oc-SN3SERbFoDHRb8Ioh-9">
          <mxGeometry y="60" width="160" height="8" as="geometry" />
        </mxCell>
        <mxCell id="oc-SN3SERbFoDHRb8Ioh-12" value="+ showInfo(): string" style="text;strokeColor=none;fillColor=none;align=left;verticalAlign=top;spacingLeft=4;spacingRight=4;overflow=hidden;rotatable=0;points=[[0,0.5],[1,0.5]];portConstraint=eastwest;" vertex="1" parent="oc-SN3SERbFoDHRb8Ioh-9">
          <mxGeometry y="68" width="160" height="52" as="geometry" />
        </mxCell>
        <mxCell id="oc-SN3SERbFoDHRb8Ioh-13" value="RamMemory" style="swimlane;fontStyle=1;align=center;verticalAlign=top;childLayout=stackLayout;horizontal=1;startSize=26;horizontalStack=0;resizeParent=1;resizeParentMax=0;resizeLast=0;collapsible=1;marginBottom=0;" vertex="1" parent="1">
          <mxGeometry x="320" y="-150" width="160" height="86" as="geometry" />
        </mxCell>
        <mxCell id="oc-SN3SERbFoDHRb8Ioh-14" value="- amount: int" style="text;strokeColor=none;fillColor=none;align=left;verticalAlign=top;spacingLeft=4;spacingRight=4;overflow=hidden;rotatable=0;points=[[0,0.5],[1,0.5]];portConstraint=eastwest;" vertex="1" parent="oc-SN3SERbFoDHRb8Ioh-13">
          <mxGeometry y="26" width="160" height="26" as="geometry" />
        </mxCell>
        <mxCell id="oc-SN3SERbFoDHRb8Ioh-15" value="" style="line;strokeWidth=1;fillColor=none;align=left;verticalAlign=middle;spacingTop=-1;spacingLeft=3;spacingRight=3;rotatable=0;labelPosition=right;points=[];portConstraint=eastwest;" vertex="1" parent="oc-SN3SERbFoDHRb8Ioh-13">
          <mxGeometry y="52" width="160" height="8" as="geometry" />
        </mxCell>
        <mxCell id="oc-SN3SERbFoDHRb8Ioh-16" value="+ showInfo(): string" style="text;strokeColor=none;fillColor=none;align=left;verticalAlign=top;spacingLeft=4;spacingRight=4;overflow=hidden;rotatable=0;points=[[0,0.5],[1,0.5]];portConstraint=eastwest;" vertex="1" parent="oc-SN3SERbFoDHRb8Ioh-13">
          <mxGeometry y="60" width="160" height="26" as="geometry" />
        </mxCell>
        <mxCell id="oc-SN3SERbFoDHRb8Ioh-17" value="1" style="endArrow=open;html=1;endSize=12;startArrow=diamondThin;startSize=14;startFill=1;edgeStyle=orthogonalEdgeStyle;align=left;verticalAlign=bottom;rounded=0;entryX=0;entryY=0.5;entryDx=0;entryDy=0;" edge="1" parent="1" source="oc-SN3SERbFoDHRb8Ioh-4" target="oc-SN3SERbFoDHRb8Ioh-10">
          <mxGeometry x="-1" y="3" relative="1" as="geometry">
            <mxPoint x="220" y="-324" as="sourcePoint" />
            <mxPoint x="380" y="-324" as="targetPoint" />
          </mxGeometry>
        </mxCell>
        <mxCell id="oc-SN3SERbFoDHRb8Ioh-18" value="1" style="endArrow=open;html=1;endSize=12;startArrow=diamondThin;startSize=14;startFill=1;edgeStyle=orthogonalEdgeStyle;align=left;verticalAlign=bottom;rounded=0;" edge="1" parent="1" source="oc-SN3SERbFoDHRb8Ioh-4" target="oc-SN3SERbFoDHRb8Ioh-14">
          <mxGeometry x="-1" y="3" relative="1" as="geometry">
            <mxPoint x="100" y="-190" as="sourcePoint" />
            <mxPoint x="260" y="-190" as="targetPoint" />
            <Array as="points">
              <mxPoint x="110" y="-190" />
              <mxPoint x="400" y="-190" />
            </Array>
          </mxGeometry>
        </mxCell>
        <mxCell id="oc-SN3SERbFoDHRb8Ioh-19" value="1" style="endArrow=open;html=1;endSize=12;startArrow=diamondThin;startSize=14;startFill=0;edgeStyle=orthogonalEdgeStyle;align=left;verticalAlign=bottom;rounded=0;" edge="1" parent="1" source="oc-SN3SERbFoDHRb8Ioh-2" target="oc-SN3SERbFoDHRb8Ioh-6">
          <mxGeometry x="-1" y="3" relative="1" as="geometry">
            <mxPoint x="100" y="-434" as="sourcePoint" />
            <mxPoint x="260" y="-434" as="targetPoint" />
            <Array as="points">
              <mxPoint x="230" y="-351" />
              <mxPoint x="230" y="-434" />
              <mxPoint x="280" y="-434" />
              <mxPoint x="280" y="-531" />
            </Array>
          </mxGeometry>
        </mxCell>
      </root>
    </mxGraphModel>
  </diagram>
</mxfile>
